<?xml version="1.0" encoding="UTF-8" standalone="no"?>

<svg
   xmlns:dc="http://purl.org/dc/elements/1.1/"
   xmlns:cc="http://creativecommons.org/ns#"
   xmlns:rdf="http://www.w3.org/1999/02/22-rdf-syntax-ns#"
   xmlns:svg="http://www.w3.org/2000/svg"
   xmlns="http://www.w3.org/2000/svg"
   xmlns:sodipodi="http://sodipodi.sourceforge.net/DTD/sodipodi-0.dtd"
   xmlns:inkscape="http://www.inkscape.org/namespaces/inkscape"
   width="93.564217"
   height="93.564217"
   id="svg3147"
   version="1.1"
   inkscape:version="0.48.5 r10040"
   sodipodi:docname="174 BNT #124 muslim icon_next4 submit ocal_c peci-@tmg.svg">
  <defs
     id="defs3149" />
  <sodipodi:namedview
     id="base"
     pagecolor="#ffffff"
     bordercolor="#666666"
     borderopacity="1.0"
     inkscape:pageopacity="0.0"
     inkscape:pageshadow="2"
     inkscape:zoom="2.8"
     inkscape:cx="30.808338"
     inkscape:cy="38.685829"
     inkscape:document-units="px"
     inkscape:current-layer="layer1"
     showgrid="false"
     fit-margin-top="0"
     fit-margin-left="0"
     fit-margin-right="0"
     fit-margin-bottom="0"
     inkscape:window-width="1366"
     inkscape:window-height="688"
     inkscape:window-x="-8"
     inkscape:window-y="-8"
     inkscape:window-maximized="1" />
  <metadata
     id="metadata3152">
    <rdf:RDF>
      <cc:Work
         rdf:about="">
        <dc:format>image/svg+xml</dc:format>
        <dc:type
           rdf:resource="http://purl.org/dc/dcmitype/StillImage" />
        <dc:title></dc:title>
      </cc:Work>
    </rdf:RDF>
  </metadata>
  <g
     inkscape:label="Layer 1"
     inkscape:groupmode="layer"
     id="layer1"
     transform="translate(-181.78932,-457.00864)">
    <g
       style="fill:#44aa00;fill-opacity:1"
       transform="translate(67.290861,442.11587)"
       id="g3306">
      <rect
         style="color:#000000;fill:#44aa00;fill-opacity:1;fill-rule:nonzero;stroke:none;stroke-width:3.20000005;marker:none;visibility:visible;display:inline;overflow:visible;enable-background:accumulate"
         id="rect3308"
         width="93.564217"
         height="93.564217"
         x="114.49846"
         y="14.892772"
         rx="0.31012449"
         ry="0.31012449" />
    </g>
    <g
       id="g3310"
       transform="translate(-135.53556,482.3187)">
      <path
         style="color:#000000;fill:#ffffff;fill-opacity:1;fill-rule:nonzero;stroke:none;stroke-width:3.20000005;marker:none;visibility:visible;display:inline;overflow:visible;enable-background:accumulate"
         d="m 375.55822,-4.4342018 -34.84375,6.59375 c -0.1918,0.0364 -0.25789,0.22787 -0.1875,0.40625 l 0.25,0.59375 2.53125,6.4375 0,0.03125 c 0.79525,2.4189798 2.22956,5.9672198 3.8125,9.6874998 l 8,20.34375 c 0.0704,0.17839 0.30821,0.31767 0.5,0.28125 l 33.40625,-6.40625 -2.34375,5.8125 -33.65625,6.375 c -0.19179,0.0364 -0.39835,-0.0716 -0.46875,-0.25 l -14.1875,-35.9999998 -0.71875,0.125 c -0.19179,0.0364 -0.2579,0.22787 -0.1875,0.4062498 l 14.625,37.125 c 0.0704,0.17839 0.27695,0.28642 0.46875,0.25 l 34.84375,-6.625 c 0.0799,-0.0152 0.14425,-0.0761 0.1875,-0.125 0.005,-0.005 0.0274,0.005 0.0312,0 l 0,-0.03125 3.15625,-7.5 -0.0625,-0.0625 c 0.002,-0.0419 -0.0136,-0.04915 -0.0312,-0.09375 L 376.02697,-4.1842018 c -0.0704,-0.17838 -0.27695,-0.28641 -0.46875,-0.25 z m -35.34375,9 -1.4375,3.65625 14.5,36.4999998 32.5625,-6.3125 1.375,-3.46875 -32.25,6.125 c -0.1918,0.0364 -0.3671,-0.0716 -0.4375,-0.25 L 340.21447,4.5657982 z m 25.1875,2.375 c 0.0112,-0.0364 0.43695,0.40666 0.84375,0.875 0.16778,0.19316 0.41718,0.51413 0.5,0.6875 l 0.0312,0.125 -0.28125,-0.125 -0.25,-0.125 0.125,0.375 c 0.11052,0.33905 0.36868,0.98989 0.65625,1.6562498 0.0619,0.14359 0.38538,0.89625 0.71875,1.6875 0.33338,0.79125 0.65354,1.56411 0.71875,1.71875 0.0652,0.15466 0.18509,0.4078 0.25,0.5625 0.0649,0.15471 0.26006,0.61215 0.4375,1.03125 0.17746,0.41909 0.3448,0.85879 0.375,0.96875 0.14956,0.54497 0.0584,1.06599 -0.21875,1.4375 -0.15495,0.20771 -0.44875,0.48068 -0.6875,0.625 -0.0883,0.0533 -0.17613,0.07915 -0.1875,0.09375 -0.0135,0.0174 0.0457,0.16735 0.125,0.40625 0.25895,0.77528 0.41208,1.66078 0.40625,2.21875 -0.005,0.51263 -0.005,0.49244 -0.21875,-0.21875 -0.18682,-0.62154 -0.36638,-1.09838 -0.6875,-1.90625 -0.14845,-0.37343 -0.14767,-0.38964 -0.21875,-0.40625 -0.47607,-0.11124 -0.69915,-0.18868 -0.90625,-0.28125 -0.3126,-0.13973 -0.69255,-0.33624 -1.28125,-0.6875 -0.16591,-0.099 -0.41505,-0.25582 -0.5625,-0.34375 -0.66309,-0.3954 -1.78092,-0.95064 -2,-1 -0.12731,-0.0287 -0.082,0.0391 0.125,0.1875 0.96124,0.69048 1.40498,1.32521 1.46875,2.09375 0.0223,0.26827 -0.0204,0.3559 -0.15625,0.59375 -0.12097,0.21199 -0.25871,0.36664 -0.5625,0.625 -0.31166,0.26506 -0.31529,0.26107 -1.0625,0.71875 -0.35622,0.2182 -0.75194,0.47736 -0.875,0.5625 -0.65782,0.4552 -1.1177,0.97391 -1.375,1.53125 l -0.0937,0.1875 0.0625,0.21875 c 0.23991,0.87107 0.74468,1.47532 1.40625,1.6875 0.37783,0.12119 1.01099,0.15386 1.4375,0.0625 0.3512,-0.0753 0.97711,-0.33658 1.125,-0.46875 0.0255,-0.0229 0.0312,-0.0742 0.0312,-0.125 -1.7e-4,-0.19692 0.0485,-0.85286 0.0937,-1.15625 l 0.0625,-0.3125 -0.3125,-0.1875 c -0.25412,-0.16215 -0.27992,-0.22233 -0.28125,-0.28125 -0.003,-0.15281 0.14425,-0.54647 0.21875,-0.5625 0.0208,-0.004 0.0776,0.01835 0.125,0.03125 0.0857,0.0233 0.087,0.003 0.25,-0.25 0.27915,-0.43299 0.48939,-0.83163 0.5625,-1.09375 0.0395,-0.1417 0.0421,-0.16562 -0.0625,-0.1875 -0.13029,-0.0273 -0.25891,-0.1758 -0.28125,-0.34375 -0.0655,-0.4924 0.143,-0.78989 0.40625,-0.59375 0.0531,0.0395 0.12354,0.0816 0.15625,0.125 0.0703,0.0932 0.13881,0.35592 0.15625,0.5625 0.012,0.14161 -0.006,0.14713 0.0937,0.21875 0.12594,0.0901 0.19717,0.17643 0.1875,0.28125 -0.01,0.10972 -0.0963,0.10471 -0.25,0 l -0.125,-0.09375 -0.0625,0.125 c -0.11493,0.23531 -0.55479,0.97498 -0.6875,1.15625 l -0.125,0.15625 0.25,0.15625 c 0.12985,0.0857 0.24341,0.16314 0.25,0.1875 0.0183,0.0696 -0.0271,0.20658 -0.15625,0.53125 -0.12983,0.32654 -0.16924,0.58361 -0.1875,0.90625 -0.0113,0.20055 -0.002,0.53832 0.0312,0.53125 0.10631,-0.023 1.11633,-0.83638 1.46875,-1.1875 0.31929,-0.31811 0.67406,-0.75404 0.90625,-1.09375 0.27736,-0.4058 0.27644,-0.41368 0.1875,-0.53125 -0.0234,-0.031 -0.12116,-0.17659 -0.21875,-0.3125 -0.19433,-0.27072 -0.27169,-0.36222 -0.75,-0.9375 -0.17706,-0.21294 -0.43468,-0.52487 -0.5625,-0.6875 l -0.21875,-0.28125 -0.0312,-0.25 c -0.0148,-0.23349 0.01,-0.43657 0.0625,-0.46875 0.0144,-0.009 0.17126,0.0879 0.3125,0.1875 0.14125,0.0996 0.39768,0.27016 0.59375,0.40625 0.19609,0.13609 0.3758,0.26462 0.375,0.28125 -0.003,0.0592 -0.12982,0.07125 -0.28125,0.03125 -0.0844,-0.0223 -0.17885,-0.0148 -0.1875,0 -0.0245,0.0422 0.21586,0.37138 0.53125,0.75 0.41009,0.4923 0.52061,0.63119 0.625,0.9375 0.18689,0.54791 0.11293,1.05189 -0.25,1.65625 -0.38378,0.63911 -1.20816,1.45585 -2.15625,2.125 -0.28004,0.19765 -0.30867,0.22383 -0.25,0.4375 0.0912,0.33168 0.37276,0.72605 0.625,0.90625 0.46466,0.33198 0.88131,0.1747 1.375,-0.53125 0.20163,-0.2883 0.36806,-0.59706 0.6875,-1.3125 0.60608,-1.35742 0.95008,-1.79606 2.25,-2.75 0.47003,-0.34491 0.43964,-0.33842 0.6875,-0.53125 0.0996,-0.0774 0.21151,-0.12344 0.21875,-0.125 0.008,-0.002 0.0796,-0.0537 0.15625,-0.125 l 0.125,-0.15625 -0.125,-0.25 c -0.33444,-0.64137 -0.52883,-1.22359 -0.53125,-1.625 -0.002,-0.37081 0.10567,-0.72278 0.28125,-0.875 0.0961,-0.0833 0.3957,-0.17125 0.53125,-0.15625 0.22305,0.0247 0.57652,0.35897 0.8125,0.75 0.40174,0.66573 0.39804,1.49691 -0.0312,2.21875 l -0.125,0.21875 0.0937,0.09375 c 0.14492,0.12978 0.42692,0.2498 0.625,0.28125 0.22316,0.0354 0.61793,-0.0151 0.84375,-0.125 0.26752,-0.13011 0.6066,-0.46982 0.71875,-0.6875 l 0.0312,-0.0625 -0.46875,-1.21875 c -0.25869,-0.67395 -0.52041,-1.38215 -0.59375,-1.5625 -0.40211,-0.98883 -0.65346,-1.60585 -0.90625,-2.21875 -0.12339,-0.29887 -0.61274,-1.44066 -0.75,-1.78125 -0.11141,-0.27649 -1.01664,-2.50521 -1.65625,-4.0624998 -0.14513,-0.35319 -0.27378,-0.69668 -0.28125,-0.75 -0.0136,-0.0949 0.0668,-0.52489 0.0937,-0.53125 0.0506,-0.0116 0.66439,0.69282 0.875,1 0.16978,0.24761 0.38994,0.62954 0.40625,0.6875 0.0251,0.0865 -0.14057,0.0249 -0.3125,-0.125 -0.12609,-0.10997 -0.13125,-0.09375 -0.0625,0.09375 0.0337,0.0908 0.21364,0.6249998 0.40625,1.1562498 0.31714,0.87497 0.47585,1.23943 1.1875,3 0.11948,0.29594 0.27374,0.70179 0.34375,0.875 0.0701,0.17322 0.26042,0.60786 0.40625,0.96875 0.1459,0.36087 0.35456,0.95153 0.5,1.3125 0.33535,0.83226 0.51337,1.20135 0.6875,1.625 0.10182,0.24787 0.16683,0.44172 0.25,0.78125 0.14833,0.60711 0.165,0.92389 0.0625,1.3125 -0.0958,0.36322 -0.31458,0.59321 -0.6875,0.8125 -0.21045,0.12375 -0.26618,0.16037 -0.53125,0.21875 -0.22664,0.0501 -0.34407,0.0753 -0.46875,0.0625 -0.30229,-0.0308 -0.62247,-0.25028 -0.96875,-0.625 -0.0937,-0.1014 -0.20113,-0.19083 -0.21875,-0.1875 -0.0731,0.0136 -0.74409,0.48403 -1.25,0.875 -0.50179,0.3878 -1.12751,0.93153 -1.28125,1.09375 -0.34394,0.3629 -0.64244,0.83478 -1.15625,1.9375 -0.22026,0.47268 -0.52281,1.01593 -0.6875,1.21875 -0.21813,0.26865 -0.47013,0.39557 -0.8125,0.375 -0.51084,-0.0307 -1.01341,-0.35744 -1.3125,-0.84375 -0.11744,-0.19105 -0.28726,-0.50207 -0.3125,-0.59375 -0.0199,-0.0717 -0.0228,-0.09155 -0.34375,0.03125 -0.36672,0.14025 -0.94888,0.29645 -1.28125,0.34375 -0.7351,0.10465 -1.33582,-0.0535 -1.8125,-0.5 -0.38194,-0.35772 -0.6311,-0.81387 -0.84375,-1.5 -0.0734,-0.23526 -0.14017,-0.45108 -0.15625,-0.46875 -0.0217,-0.024 -0.0736,0.0136 -0.15625,0.125 -0.0609,0.082 -0.1516,0.22194 -0.21875,0.3125 -0.17198,0.23198 -0.26942,0.29339 -0.5,0.34375 -0.34465,0.0748 -0.67057,0.0148 -1.03125,-0.21875 -0.38279,-0.24786 -0.65308,-0.62678 -0.78125,-1.09375 -0.10361,-0.37731 -0.13438,-0.72581 -0.0937,-1.28125 0.0323,-0.4417 0.0409,-0.49739 0.0625,-0.65625 0.0108,-0.0791 0.005,-0.15439 0,-0.15625 -0.005,-0.002 -0.0667,-0.01425 -0.15625,-0.03125 -0.22517,-0.0427 -0.47117,-0.12241 -0.6875,-0.25 -0.43151,-0.2545 -0.62963,-0.54648 -0.78125,-1.09375 -0.16147,-0.58183 -0.15565,-1.21645 0.0625,-2.0625 l 0.0937,-0.34375 -0.0625,-0.09375 c -0.12831,-0.19113 -0.25083,-0.46042 -0.28125,-0.6875 -0.0706,-0.52598 0.0511,-1.03914 0.40625,-1.9375 l 0.125,-0.3125 -0.0937,-0.15625 c -0.0994,-0.23268 -0.13746,-0.59808 -0.125,-0.9375 0.006,-0.15029 0.0251,-0.29392 0.0312,-0.3125 0.041,-0.12672 1.20048,-1.14522 2.03125,-1.78125 1.07126,-0.8201198 2.26477,-1.6131898 3.3125,-2.1874998 0.0736,-0.0403 0.24156,-0.14338 0.375,-0.21875 0.28298,-0.15986 1.17109,-0.58804 1.5625,-0.78125 0.45176,-0.22298 0.74954,-0.24684 1.03125,-0.0625 0.29265,0.19151 0.32901,0.70896 0.125,1.4375 -0.14278,0.50983 -0.30147,0.85362 -0.71875,1.6562498 -0.11494,0.22107 -0.2614,0.57151 -0.34375,0.75 -0.0823,0.17849 -0.15009,0.31638 -0.15625,0.3125 -0.0243,-0.0153 -0.0122,-0.27828 0.0312,-0.5 0.0685,-0.35056 0.21835,-0.73953 0.5625,-1.3749998 0.22886,-0.42259 0.47752,-0.93251 0.5,-1.03125 0.0276,-0.12123 -0.007,-0.33144 -0.0937,-0.4375 -0.0371,-0.0451 -0.12809,-0.104 -0.1875,-0.125 -0.10248,-0.0362 -0.12961,-0.00795 -0.53125,0.09375 -0.65087,0.16517 -0.91794,0.26954 -2.125,1 -0.94405,0.57129 -1.10227,0.67827 -2.25,1.4687498 -0.0777,0.0536 -0.22148,0.15734 -0.3125,0.21875 -0.97084,0.6552 -1.77008,1.29593 -2.53125,2.03125 -0.0395,0.0382 -0.0647,0.08515 -0.0625,0.09375 0.002,0.009 0.0743,0.0301 0.15625,0.0625 0.0821,0.0324 0.24454,0.10218 0.375,0.15625 0.13044,0.0541 0.54315,0.22568 0.90625,0.375 0.36309,0.14933 0.76974,0.31808 0.90625,0.375 0.13653,0.0569 0.37402,0.13617 0.5,0.1875 0.12595,0.0513 0.35689,0.14508 0.53125,0.21875 0.17437,0.0737 0.44631,0.19015 0.59375,0.25 0.14745,0.0599 0.3559,0.14137 0.46875,0.1875 0.71049,0.29043 0.66516,0.27634 0.71875,0.21875 0.0895,-0.0961 0.49673,-0.3539 0.75,-0.46875 0.14749,-0.0669 0.39956,-0.13965 0.59375,-0.1875 l 0.3125,-0.09375 -0.0312,-0.09375 c -0.0185,-0.0523 -0.15115,-0.31901 -0.3125,-0.59375 -0.43362,-0.73821 -0.71561,-1.19183 -0.84375,-1.46875 -0.16494,-0.35628 -0.30463,-0.87393 -0.3125,-1.0625 -0.008,-0.195 0.0241,-0.52298 0.0625,-0.53125 0.0296,-0.006 1.04544,1.19446 1.03125,1.21875 -0.003,0.007 -0.09,-0.01395 -0.1875,-0.03125 l -0.1875,-0.03125 0.0625,0.125 c 0.16616,0.43405 0.26138,0.61251 0.40625,0.875 0.29748,0.53915 0.59856,0.96882 0.90625,1.21875 0.20599,0.16733 0.6106,0.39407 0.875,0.5 0.22019,0.0882 0.24233,0.11008 0.3125,0.25 0.0845,0.16852 0.17499,0.56978 0.15625,0.6875 l 0,0.09375 -0.1875,-0.09375 c -0.21716,-0.12016 -0.44298,-0.18838 -0.75,-0.25 -0.33629,-0.0675 -0.57853,-0.0789 -0.9375,0 -0.3194,0.0701 -0.47246,0.13809 -0.6875,0.28125 l -0.125,0.0625 0.5,0.25 c 0.75548,0.37228 2.08109,1.06451 2.46875,1.28125 0.61889,0.34604 1.12753,0.63528 1.3125,0.71875 0.23163,0.10451 0.56237,0.20087 0.625,0.1875 0.0395,-0.008 0.0618,-0.007 -0.28125,-0.90625 -0.26577,-0.69652 -0.76067,-1.92331 -0.96875,-2.40625 -0.3298,-0.76551 -1.24791,-3.04629 -1.3125,-3.28125 -0.0236,-0.0851 0.005,-0.17135 0.0312,-0.3125 l 0.0312,-0.21875 0.0937,0.09375 c 0.35292,0.34207 0.7354,0.77542 0.9375,1.0625 0.0827,0.11754 0.29902,0.48216 0.3125,0.53125 0.003,0.0127 -0.11891,-0.02765 -0.25,-0.09375 -0.13108,-0.0661 -0.2427,-0.12657 -0.25,-0.125 -0.008,0.002 0.0154,0.05405 0.0312,0.09375 0.016,0.0397 0.1679,0.43428 0.34375,0.875 0.1758,0.44073 0.54412,1.32042 0.8125,1.96875 0.54321,1.31233 0.8039,1.94375 0.96875,2.375 0.0609,0.15948 0.10163,0.29723 0.125,0.3125 0.0232,0.0153 0.14705,0.0135 0.25,0 0.15429,-0.0203 0.21612,-0.0306 0.375,-0.125 0.33828,-0.20147 0.63302,-0.57578 0.59375,-0.71875 -0.023,-0.0818 -0.5941,-1.5705 -0.75,-1.9375 -0.0673,-0.15813 -0.18452,-0.43525 -0.25,-0.59375 -0.0655,-0.15849 -0.24457,-0.57989 -0.40625,-0.96875 -0.16158,-0.38887 -0.36904,-0.86553 -0.4375,-1.03125 -0.0685,-0.1657 -0.18451,-0.43524 -0.25,-0.59375 -0.12555,-0.30385 -0.43047,-1.06872 -0.625,-1.53125 -0.0635,-0.15108 -0.20384,-0.4376698 -0.28125,-0.6249998 -0.0773,-0.18734 -0.26267,-0.67467 -0.4375,-1.0625 -0.39262,-0.87089 -0.45452,-0.97403 -0.4375,-1.28125 0.007,-0.12704 0.0247,-0.26027 0.0312,-0.28125 z m 2.09375,0.1875 c 0.061,0.041 0.66581,0.70921 0.84375,0.9375 0.20467,0.26258 0.4233,0.58291 0.5,0.75 l 0.0312,0.09375 -0.0625,-0.03125 c -0.0431,-0.0227 -0.15304,-0.10153 -0.25,-0.15625 -0.097,-0.0547 -0.18425,-0.10005 -0.1875,-0.09375 -0.006,0.0112 0.20041,0.53974 0.65625,1.5937498 0.12727,0.29428 0.40169,0.89867 0.59375,1.34375 0.19204,0.44509 0.3574,0.8415 0.375,0.875 l 0.0312,0.0625 0.0312,-0.0625 c 0.0235,-0.0375 0.0673,-0.15681 0.0937,-0.25 l 0.0625,-0.15625 -0.1875,-0.1875 c -0.23917,-0.2358 -0.28063,-0.334 -0.21875,-0.53125 0.0814,-0.25944 0.24779,-0.38878 0.40625,-0.28125 0.20124,0.13656 0.33376,0.45655 0.3125,0.8125 -0.006,0.0947 -0.0183,0.18493 0,0.21875 0.0184,0.0334 0.0606,0.0866 0.0625,0.125 0.002,0.0642 -0.0229,0.0782 -0.0937,0.0625 -0.0849,-0.0187 -0.0749,-0.0516 -0.1875,0.21875 -0.0278,0.0669 -0.086,0.20617 -0.125,0.28125 l -0.0625,0.125 0.0937,0.21875 c 0.38066,0.89164 0.56813,1.76762 0.53125,2.34375 -0.0157,0.24542 0.002,0.24596 -0.0312,0.125 -0.14122,-0.50807 -0.5128,-1.468 -0.71875,-1.875 -0.17054,-0.33714 -0.19163,-0.34519 -0.3125,-0.1875 -0.15642,0.20404 -0.39227,0.47843 -0.53125,0.59375 -0.0224,0.0186 -0.0509,0.02307 -0.0625,0.03125 0.0297,-0.05609 0.12142,-0.206 0.28125,-0.46875 l 0.3125,-0.5625 -0.0937,-0.28125 c -0.86087,-2.1604 -1.38657,-3.3700998 -1.90625,-4.4687498 -0.13135,-0.2777 -0.2385,-0.54153 -0.25,-0.59375 -0.0438,-0.19544 -7e-4,-0.66733 0.0625,-0.625 z m -6.3125,0.1875 c 0.0357,-0.008 -0.022,0.16383 -0.0937,0.28125 -0.0864,0.14132 -0.18489,0.21932 -1.1875,0.90625 -0.82421,0.56471 -1.54789,1.09337 -1.84375,1.3125 -0.10681,0.0791 -0.21182,0.15477 -0.21875,0.15625 -0.007,0.002 0.0159,-0.0605 0.0312,-0.125 0.016,-0.0646 0.0365,-0.16982 0.0625,-0.21875 0.0506,-0.0953 0.42022,-0.3877 0.84375,-0.6875 0.45717,-0.32359 2.36665,-1.61648 2.40625,-1.625 z m 3.90625,1.8125 c 0.14938,-0.0321 0.37307,-0.0171 0.5,0.0625 0.298,0.18698 0.34773,0.57928 0.0937,0.8437498 -0.10987,0.11445 -0.20009,0.14969 -0.3125,0.125 -0.18633,-0.0409 -0.23515,-0.0663 -0.3125,-0.4062498 -0.0386,-0.16867 -0.0641,-0.38595 -0.0625,-0.46875 0.004,-0.13439 0.0283,-0.14216 0.0937,-0.15625 z m -2.53125,0.09375 c 0.0181,0.0303 0.0634,0.16912 0.0937,0.375 0.0469,0.31796 0.0971,0.4506398 0.21875,0.5312498 0.11337,0.0751 0.14245,0.0528 0.1875,-0.0625 0.0201,-0.0514 0.0483,-0.09075 0.0625,-0.09375 0.0512,-0.011 0.0659,0.18302 0.0312,0.3125 -0.048,0.17883 -0.16249,0.2537 -0.25,0.1875 -0.2163,-0.16365 -0.37224,-0.61271 -0.375,-1.0625 -10e-4,-0.15651 0.0132,-0.2178 0.0312,-0.1875 z m 2.78125,0.1875 c -0.0964,-0.0105 -0.17719,-0.00395 -0.1875,0.03125 -0.005,0.0132 0.005,0.11018 0.0312,0.21875 0.0339,0.15054 0.0578,0.20497 0.0937,0.21875 0.0716,0.0283 0.28104,-0.0481 0.34375,-0.125 0.0674,-0.0827 0.0496,-0.19382 -0.0312,-0.25 -0.0617,-0.0429 -0.15359,-0.08335 -0.25,-0.09375 z m 2.1875,0.375 0.0312,0.125 c 0.0609,0.3761498 0.12359,0.6043698 0.1875,0.7187498 0.0738,0.13389 0.16145,0.22461 0.25,0.25 0.049,0.014 0.0614,-0.004 0.0937,-0.125 0.0323,-0.12048 0.0648,-0.13386 0.0937,-0.09375 0.0869,0.12067 0.1031,0.3463 0.0312,0.46875 -0.0468,0.08 -0.16864,0.08975 -0.28125,0.03125 -0.20475,-0.10632 -0.36545,-0.39609 -0.40625,-0.8125 -0.0135,-0.13938 -0.007,-0.31948 0,-0.4062498 l 0,-0.15625 z m 4.4375,0 0.3125,0.3124998 c 0.46447,0.4645 0.7027,0.72538 0.875,1 0.23107,0.36827 0.22306,0.39336 -0.0625,0.25 -0.13268,-0.0666 -0.24349,-0.1264 -0.25,-0.125 -0.0124,0.003 -0.016,0.014 0.15625,0.46875 0.23892,0.62926 0.29952,0.77843 1.125,2.6875 0.27963,0.64676 0.55805,1.33342 0.75,1.875 0.17766,0.50152 0.49102,1.60513 0.5,1.78125 0.006,0.10956 -0.0716,0.57841 -0.0937,0.6875 -0.011,-0.0383 -0.12333,-0.29544 -0.21875,-0.5625 -0.0955,-0.26703 -0.20022,-0.6038 -0.25,-0.75 -0.46655,-1.36913 -0.53605,-1.51981 -1.65625,-4.15625 -0.19246,-0.45283 -0.51772,-1.21296 -0.71875,-1.6875 -0.20108,-0.47452 -0.39995,-0.88769 -0.4375,-0.9375 -0.10339,-0.13704 -0.13708,-0.36283 -0.0937,-0.625 l 0.0625,-0.2187498 z m -12.0625,0.9062498 0.0312,0.09375 c 0.0204,0.0497 0.0563,0.22642 0.0625,0.375 0.0146,0.35022 0.0731,0.58897 0.1875,0.71875 0.13297,0.15109 0.15616,0.15417 0.25,0.0625 l 0.0937,-0.09375 0.0312,0.125 c 0.0755,0.27462 -0.17686,0.45642 -0.40625,0.3125 -0.12486,-0.0784 -0.18132,-0.20131 -0.25,-0.53125 -0.0518,-0.24894 -0.0693,-0.66603 -0.0312,-0.90625 l 0.0312,-0.15625 z m 10.21875,0.6875 c -0.15761,-0.006 -0.1465,0.13884 0.0312,0.25 0.12865,0.0807 0.19123,0.0684 0.15625,-0.0625 -0.0269,-0.0957 -0.11813,-0.1849 -0.1875,-0.1875 z m -11.78125,0.1875 c 0.0343,-0.035 0.0827,0.21142 0.0937,0.46875 0.0145,0.33296 0.0736,0.52022 0.1875,0.65625 0.12874,0.15394 0.16257,0.16961 0.25,0.09375 0.0398,-0.0344 0.0781,-0.0722 0.0937,-0.0625 0.045,0.0282 0.0463,0.2275 0,0.3125 -0.0559,0.10344 -0.23365,0.15782 -0.34375,0.09375 -0.17467,-0.10161 -0.2778,-0.36483 -0.3125,-0.78125 -0.0206,-0.2472 2e-4,-0.7499 0.0312,-0.78125 z m 6.3125,0.3125 c 0.0178,-0.009 0.0263,-0.003 0.0625,0 0.14515,0.0103 0.21129,0.0466 0.25,0.1875 0.0194,0.0693 0.0374,0.14509 0.0312,0.15625 -0.006,0.0112 -0.0791,-0.009 -0.15625,-0.03125 -0.28145,-0.08 -0.28288,-0.0636 -0.0937,0.6875 l 0.15625,0.625 -0.1875,-0.15625 c -0.38227,-0.33385 -0.60971,-0.44988 -0.8125,-0.40625 -0.15638,0.0336 -0.28899,-0.0545 -0.34375,-0.25 -0.0336,-0.11789 -0.004,-0.13734 0.15625,-0.125 0.19485,0.015 0.4611,0.12391 0.6875,0.28125 0.10466,0.0727 0.19014,0.10767 0.1875,0.09375 -0.002,-0.014 0.002,-0.0394 0,-0.0625 -0.002,-0.0231 -0.0134,-0.14577 -0.0312,-0.25 -0.0509,-0.31203 -0.027,-0.50809 0.0625,-0.6875 0.0143,-0.0285 0.0136,-0.0533 0.0312,-0.0625 z m -3.3125,0.34375 c 0.0236,-0.0107 0.0259,-0.006 0.0625,0 0.20602,0.0318 0.32298,0.17659 0.28125,0.375 l -0.0312,0.09375 -0.125,-0.09375 c -0.30944,-0.17405 -0.36567,0.004 -0.1875,0.65625 0.12426,0.45499 0.19397,0.89137 0.125,0.90625 -0.0115,0.002 -0.11221,-0.0965 -0.21875,-0.21875 -0.31952,-0.36634 -0.49039,-0.47969 -0.6875,-0.4375 -0.20183,0.0433 -0.38249,-0.13288 -0.40625,-0.40625 -0.009,-0.095 0.0215,-0.10283 0.125,-0.125 0.19732,-0.0425 0.38387,0.0709 0.75,0.40625 0.23774,0.21776 0.26428,0.19831 0.1875,-0.09375 -0.12472,-0.47342 -0.11394,-0.84144 0.0312,-1 0.0348,-0.038 0.0702,-0.0518 0.0937,-0.0625 z m 12.84375,0.6875 c 0.0168,0.004 0.031,0.12011 0.0625,0.34375 0.025,0.17244 0.0752,0.36979 0.0937,0.4375 0.0448,0.16413 0.14137,0.35561 0.25,0.4375 l 0.0937,0.0625 0.0312,-0.0625 c 0.0431,-0.10114 0.11747,-0.0787 0.15625,0.0625 0.0408,0.14837 -0.0188,0.25834 -0.125,0.28125 -0.0556,0.012 -0.096,0.005 -0.1875,-0.0625 -0.23228,-0.17056 -0.36482,-0.50475 -0.40625,-1.1875 -0.0133,-0.21895 0.0145,-0.31683 0.0312,-0.3125 z m -7.28125,0.09375 0.0312,0.125 c 0.0938,0.62975 0.1023,0.72837 0.1875,0.875 0.0527,0.0908 0.32144,0.29278 0.375,0.28125 0.0134,-0.003 0.0274,-0.0769 0.0312,-0.15625 0.007,-0.14931 -10e-5,-0.17243 0.0625,-0.125 0.10754,0.0814 0.16596,0.40897 0.0937,0.53125 -0.0476,0.0814 -0.17774,0.11195 -0.28125,0.0625 -0.19296,-0.0926 -0.44129,-0.50131 -0.5,-0.84375 -0.0395,-0.22854 -0.0312,-0.48764 0,-0.625 l 0,-0.125 z m 4.09375,0.4375 c 0.0128,0.0386 0.019,0.14511 0.0312,0.3125 0.0386,0.52557 0.16108,0.80373 0.375,0.9375 l 0.0937,0.03125 0.0312,-0.125 0.0625,-0.125 0.0312,0.15625 c 0.0278,0.12531 0.0227,0.23276 0,0.3125 -0.0291,0.0989 -0.036,0.10586 -0.125,0.125 -0.0784,0.017 -0.13034,0.01415 -0.1875,-0.03125 -0.1229,-0.0979 -0.19986,-0.24134 -0.28125,-0.59375 -0.0748,-0.32425 -0.0907,-0.71427 -0.0625,-0.9375 0.0119,-0.0941 0.0186,-0.10113 0.0312,-0.0625 z m -14.4375,0.375 -0.0312,0.09375 c -0.18304,0.43968 -0.33892,1.02202 -0.34375,1.3125 -0.005,0.27199 0.1794,0.71324 0.3125,0.78125 0.0989,0.0505 0.19469,0.008 0.28125,-0.15625 0.10312,-0.19593 0.17182,-0.30708 0.1875,-0.25 0.0271,0.0967 0.024,0.35702 -0.0312,0.53125 -0.076,0.23983 -0.21668,0.46112 -0.40625,0.71875 -0.12748,0.17328 -0.1551,0.2103 -0.1875,0.40625 -0.1724,1.04348 -0.16099,1.57303 0.0312,2 0.0961,0.21346 0.31368,0.47901 0.4375,0.5625 0.22861,0.15413 0.67482,0.16076 0.90625,0 0.40036,-0.27807 1.17701,-1.23239 1.6875,-2.0625 0.46662,-0.75877 1.15817,-1.82922 1.21875,-1.90625 l 0.0625,-0.09375 -0.96875,-0.46875 c -1.13141,-0.52225 -2.53103,-1.16795 -2.90625,-1.34375 l -0.25,-0.125 z m 1.8125,1.3125 c 0.0289,0.003 0.0543,0.0061 0.0937,0.03125 l 0.0937,0.0625 0.0625,0.34375 0.0937,0.3125 0.0937,0.09375 c 0.21168,0.14896 0.36978,0.3707 0.3125,0.46875 -0.0175,0.03 -0.0571,0.03675 -0.15625,-0.03125 -0.27546,-0.18864 -0.25123,-0.19904 -0.34375,0.09375 -0.21003,0.66468 -0.64767,1.36248 -1.34375,2.15625 l -0.1875,0.21875 0.125,-0.21875 c 0.0676,-0.1187 0.30221,-0.51633 0.53125,-0.90625 0.38406,-0.65383 0.6162,-1.1043 0.71875,-1.40625 l 0.0312,-0.125 -0.125,-0.0625 c -0.17265,-0.10273 -0.29642,-0.26516 -0.34375,-0.4375 -0.0735,-0.2679 0.0281,-0.48691 0.25,-0.5625 0.0478,-0.0163 0.065,-0.03405 0.0937,-0.03125 z m 7.28125,0.03125 c 0.014,0.007 0.0197,0.11033 0.0312,0.28125 0.0334,0.49077 0.11839,0.71394 0.3125,0.84375 l 0.0625,0.03125 0.0625,-0.125 c 0.0452,-0.0858 0.0663,-0.11086 0.0937,-0.09375 0.0563,0.0349 0.0571,0.25661 0,0.375 -0.0642,0.13193 -0.13815,0.17868 -0.25,0.125 -0.1579,-0.0758 -0.23581,-0.15588 -0.3125,-0.4375 -0.0705,-0.25889 -0.0887,-0.47289 -0.0625,-0.78125 0.0136,-0.15762 0.0485,-0.22609 0.0625,-0.21875 z m -7.34375,0.34375 c -0.0212,0.005 -0.0342,0.0243 -0.0625,0.0625 -0.0389,0.0524 -0.0395,0.0811 0,0.125 0.0503,0.0557 0.18215,0.10655 0.25,0.09375 0.032,-0.006 0.0587,-0.0488 0.0312,-0.125 -0.0229,-0.0626 -0.0811,-0.10294 -0.125,-0.125 -0.0435,-0.0218 -0.0725,-0.03615 -0.0937,-0.03125 z m 12.875,0.0625 c 0.0584,-0.0396 0.184,0.0123 0.5625,0.25 l 0.34375,0.21875 -0.0625,0.21875 c -0.0676,0.23705 -0.15135,0.37125 -0.21875,0.40625 -0.0282,0.0148 -0.16035,-0.0546 -0.40625,-0.1875 -0.20447,-0.11047 -0.37049,-0.18847 -0.375,-0.1875 -0.005,9.6e-4 -0.0618,0.12643 -0.125,0.28125 -0.0632,0.15482 -0.13952,0.27765 -0.15625,0.28125 -0.10668,0.0229 -0.75503,-0.34207 -0.78125,-0.4375 -0.005,-0.0194 0.0155,-0.17433 0.0625,-0.34375 l 0.0937,-0.3125 0.0937,0.03125 c 0.0511,0.0167 0.22904,0.12742 0.40625,0.21875 l 0.3125,0.15625 0.0625,-0.0625 c 0.0218,-0.04 0.0571,-0.16697 0.0937,-0.28125 0.0366,-0.11427 0.0727,-0.23567 0.0937,-0.25 z m -2.46875,0.1875 c 0.0108,0.007 0.009,0.0634 0,0.125 -0.0153,0.10017 -0.0536,0.17104 -0.40625,0.5 -0.21709,0.20249 -0.42712,0.39752 -0.46875,0.4375 l -0.0625,0.0625 0,-0.09375 c -0.004,-0.053 -0.0131,-0.10314 0,-0.125 0.0315,-0.0532 0.64515,-0.66995 0.8125,-0.8125 0.073,-0.0622 0.11464,-0.10028 0.125,-0.09375 z m -7.3125,0.40625 -0.125,0.125 c -0.3573,0.35878 -0.6276,0.75293 -1.5625,2.25 -0.13054,0.20905 -0.4761,0.71536 -0.625,0.90625 -0.27486,0.35235 -0.83649,0.90318 -1.03125,1 -0.0508,0.0253 -0.0974,0.066 -0.125,0.21875 -0.11929,0.6617 -0.11196,1.37595 0,1.78125 0.12961,0.46967 0.47388,0.94419 0.78125,1.03125 0.22825,0.0647 0.46937,-0.0246 0.71875,-0.21875 0.15828,-0.12326 0.19951,-0.17344 0.53125,-0.75 0.36409,-0.63274 0.55317,-0.88639 0.875,-1.21875 0.30654,-0.31659 0.96096,-0.81768 1.53125,-1.1875 0.83279,-0.54001 1.45277,-1.04265 1.84375,-1.46875 0.12752,-0.13898 0.22012,-0.24499 0.21875,-0.25 -0.0229,-0.081 -0.31545,-0.41564 -0.53125,-0.625 -0.47121,-0.45712 -1.13727,-0.90635 -2.125,-1.40625 l -0.375,-0.1875 z m 0.71875,1.65625 c 0.0372,-0.0379 0.22351,0.0332 0.5625,0.25 l 0.34375,0.21875 -0.0312,0.125 c -0.10792,0.39271 -0.18796,0.48365 -0.28125,0.5 -0.0188,0.003 -0.13627,-0.046 -0.28125,-0.125 -0.44086,-0.24012 -0.47577,-0.24306 -0.5,-0.1875 -0.0115,0.0264 -0.0711,0.15005 -0.125,0.28125 -0.0538,0.13119 -0.0892,0.24901 -0.0937,0.25 -0.0858,0.0185 -0.71025,-0.29294 -0.8125,-0.40625 -0.0337,-0.0373 -0.033,-0.10493 0.0312,-0.34375 0.0427,-0.16135 0.0854,-0.32875 0.0937,-0.34375 0.0222,-0.0401 0.12392,5.5e-4 0.5,0.1875 0.18622,0.0926 0.33385,0.15838 0.34375,0.15625 0.0286,-0.006 0.0823,-0.11992 0.15625,-0.34375 0.0376,-0.11391 0.0827,-0.2073 0.0937,-0.21875 z m 9.0625,0.59375 c -0.0722,0.0211 -0.13441,0.0804 -0.1875,0.15625 -0.15016,0.2145 -0.16621,0.42684 -0.0312,0.75 0.13077,0.3136 0.4353,0.75325 0.59375,0.875 0.0351,0.027 0.17011,-0.10178 0.40625,-0.34375 0.13315,-0.13642 0.2689,-0.35684 0.25,-0.4375 -0.0953,-0.40726 -0.45445,-0.85001 -0.78125,-0.96875 -0.0919,-0.0334 -0.17783,-0.05245 -0.25,-0.03125 z m 1.8125,0.1875 c 0.009,0.033 0.0274,0.0984 0.0312,0.21875 0.0144,0.46295 0.13163,0.81278 0.34375,0.9375 0.0959,0.0563 0.13248,0.008 0.125,-0.125 -0.005,-0.0902 0.037,-0.13692 0.0625,-0.0625 0.0508,0.14908 0.041,0.29975 -0.0312,0.4375 -0.0265,0.051 -0.0533,0.07835 -0.125,0.09375 -0.0858,0.0185 -0.12428,0.03185 -0.1875,-0.03125 -0.10686,-0.10686 -0.17866,-0.33253 -0.21875,-0.625 -0.032,-0.23255 -0.0505,-0.57371 -0.0312,-0.78125 0.007,-0.0781 0.0226,-0.0955 0.0312,-0.0625 z m -12.59375,0.59375 c 0.0621,-0.003 0.14422,0.04705 0.21875,0.09375 0.10475,0.0658 0.13097,0.0779 0.15625,0.1875 0.0157,0.0685 0.005,0.1405 0,0.15625 -0.017,0.058 -0.0827,0.04315 -0.1875,-0.03125 -0.0594,-0.0422 -0.13552,-0.067 -0.15625,-0.0625 -0.0496,0.0107 -0.0464,0.20677 0.0312,0.625 0.0681,0.364 0.084,0.62088 0.0625,0.71875 -0.0132,0.0596 9e-5,0.05505 -0.125,-0.09375 -0.0743,-0.0884 -0.21543,-0.23726 -0.3125,-0.3125 -0.17484,-0.13553 -0.20206,-0.13142 -0.3125,-0.09375 -0.102,0.0347 -0.12175,0.0124 -0.25,-0.0625 -0.15157,-0.0883 -0.1559,-0.14495 -0.15625,-0.34375 -3.5e-4,-0.13555 0.0391,-0.17796 0.15625,-0.15625 0.0942,0.0174 0.42084,0.21158 0.65625,0.40625 0.15631,0.12926 0.20902,0.1427 0.1875,0.0625 -0.006,-0.0261 -0.0611,-0.19381 -0.0937,-0.375 -0.0525,-0.27754 -0.0293,-0.34057 0,-0.5 0.0345,-0.18817 0.0261,-0.21401 0.125,-0.21875 z m 9.21875,0.03125 c 0.0303,1.4e-4 0.0772,-6.8e-4 0.0937,0.03125 0.0816,0.15775 0.0885,0.22856 0.0312,0.25 -0.0345,0.0128 -0.0957,-0.0031 -0.125,-0.03125 -0.0467,-0.0458 -0.0427,-0.03965 -0.125,0.03125 -0.0953,0.0817 -0.0849,0.11007 -0.0312,0.1875 0.0831,0.11981 0.33741,0.12216 0.53125,0 0.18908,-0.11921 0.23432,-0.11962 0.25,-0.0625 0.0264,0.093 -0.0924,0.24721 -0.28125,0.40625 -0.10149,0.0855 -0.20262,0.18615 -0.25,0.25 -0.0854,0.11528 -0.27176,0.25328 -0.28125,0.21875 -0.005,-0.0194 0.0628,-0.15589 0.125,-0.28125 0.0533,-0.10709 0.0409,-0.1434 -0.125,-0.28125 -0.18095,-0.15029 -0.20406,-0.24633 -0.125,-0.40625 0.10119,-0.20443 0.22149,-0.31292 0.3125,-0.3125 z m -4.4375,0.375 c -0.0198,0.013 -0.0374,0.05405 -0.0312,0.09375 0.0137,0.0833 0.20025,0.20493 0.28125,0.1875 0.0467,-0.0101 0.0691,-0.0081 0.0312,-0.09375 -0.0585,-0.13122 -0.22175,-0.22641 -0.28125,-0.1875 z m -1.125,1.0625 c 0.0236,-0.009 0.0225,0.0307 0.0312,0.0625 0.0227,0.0802 -0.0847,0.27523 -0.1875,0.375 -0.0524,0.0507 -0.39087,0.33478 -0.78125,0.625 -0.74015,0.55025 -1.227,0.95177 -1.3125,1.0625 l -0.0625,0.0625 0.125,0.09375 c 0.20192,0.19286 0.24363,0.39903 0.0625,0.34375 -0.0336,-0.0103 -0.12772,-0.05855 -0.1875,-0.09375 -0.0975,-0.0575 -0.0885,-0.0844 -0.125,-0.21875 -0.0242,-0.0879 -0.0439,-0.18029 -0.0312,-0.25 0.0367,-0.22284 0.10093,-0.30671 0.75,-0.78125 0.33637,-0.24591 0.68269,-0.47915 0.75,-0.53125 0.0673,-0.0521 0.22796,-0.20248 0.375,-0.3125 0.14704,-0.10999 0.35158,-0.24513 0.4375,-0.3125 0.0919,-0.0721 0.13265,-0.11555 0.15625,-0.125 z m -5.25,0.15625 c 0.005,0.0256 -8.5e-4,0.10362 0,0.21875 0.002,0.4975 0.0983,0.77956 0.25,0.90625 0.0446,0.0372 0.0505,0.039 0.0937,0 0.0278,-0.0251 0.074,-0.0707 0.0937,-0.125 l 0.0312,-0.09375 0.0312,0.15625 c 0.0396,0.14281 0.0353,0.19472 0,0.28125 -0.051,0.12447 -0.0893,0.14839 -0.1875,0.15625 -0.11317,0.009 -0.23076,-0.0613 -0.3125,-0.21875 -0.063,-0.12112 -0.0747,-0.18923 -0.0937,-0.4375 -0.0228,-0.29592 0.005,-0.68795 0.0625,-0.8125 0.0147,-0.0319 0.0265,-0.05685 0.0312,-0.03125 z m 7,0.21875 c 0.0338,-0.0268 0.0961,-0.0146 0.21875,0 0.32216,0.0384 0.5554,0.22915 0.59375,0.46875 0.0438,0.26915 -0.14705,0.53798 -0.40625,0.59375 -0.1221,0.0263 -0.13387,0.02195 -0.21875,-0.03125 -0.0791,-0.0496 -0.13095,-0.0631 -0.15625,-0.15625 -0.0395,-0.14256 -0.0518,-0.43258 -0.0625,-0.6875 -0.005,-0.10873 -0.003,-0.16064 0.0312,-0.1875 z m 0.125,0.28125 c -0.068,0.01841 -0.0699,0.09626 -0.0312,0.28125 0.0342,0.1641 0.0471,0.1894 0.0937,0.21875 0.0768,0.0482 0.24123,0.0287 0.34375,-0.0625 0.046,-0.041 0.104,-0.0976 0.125,-0.125 0.0368,-0.0479 0.0261,-0.0524 -0.0625,-0.125 -0.11617,-0.0951 -0.23537,-0.16811 -0.375,-0.1875 -0.0369,-0.0051 -0.0711,-0.0061 -0.0937,0 z m 6.46875,0.96875 c 0.003,0.006 0.0276,-0.0129 0.0312,0 0.01,0.0311 0.0206,0.18414 0.0312,0.34375 0.0268,0.37618 0.0788,0.58868 0.21875,0.71875 0.12213,0.1136 0.16979,0.08895 0.21875,-0.09375 0.0192,-0.0716 0.0444,-0.16265 0.0625,-0.1875 0.0298,-0.0409 0.046,-0.02515 0.0625,0.09375 0.0171,0.12516 -0.009,0.34486 -0.0625,0.46875 -0.0311,0.0728 -0.15018,0.12153 -0.25,0.09375 -0.19592,-0.0544 -0.33017,-0.51625 -0.34375,-1.125 -0.003,-0.12329 0.0211,-0.26949 0.0312,-0.3125 z m -9.03125,0.1875 c 0.0526,-0.003 0.12786,0.0143 0.21875,0.0625 0.16739,0.0888 0.20746,0.12419 0.1875,0.28125 l -0.0312,0.09375 -0.15625,-0.0625 c -0.18447,-0.08 -0.24483,-0.08965 -0.25,-0.03125 -9.3e-4,0.0199 0.0796,0.24976 0.15625,0.5 0.11431,0.37215 0.12205,0.47416 0.125,0.625 0.002,0.10141 0.009,0.20314 0,0.21875 -0.009,0.0162 -0.072,-0.0113 -0.125,-0.0625 -0.0514,-0.0495 -0.13163,-0.12891 -0.1875,-0.1875 -0.20359,-0.21323 -0.40157,-0.31588 -0.5625,-0.28125 -0.1158,0.0249 -0.20176,-0.0431 -0.25,-0.21875 -0.0543,-0.19786 -0.0245,-0.23121 0.0625,-0.25 0.13235,-0.0285 0.40904,0.12393 0.71875,0.40625 0.0514,0.0468 0.11582,0.09565 0.125,0.09375 0.0333,-0.007 0.0126,-0.13217 -0.0625,-0.40625 -0.0788,-0.28818 -0.10605,-0.55507 -0.0625,-0.6875 0.0177,-0.0549 0.0412,-0.09055 0.0937,-0.09375 z m 8.0625,0.625 c 0.0995,-0.0214 0.24944,0.0487 0.34375,0.15625 0.0785,0.0894 0.0852,0.0865 0.0625,0.1875 -0.0131,0.0568 -0.0226,0.12314 -0.0312,0.125 -0.009,0.002 -0.10157,-0.026 -0.1875,-0.0625 -0.17164,-0.0728 -0.26447,-0.0803 -0.28125,0 -0.006,0.0288 0.0383,0.23741 0.0937,0.46875 0.0947,0.40076 0.14009,0.79576 0.0937,0.875 -0.009,0.0158 -0.11358,-0.0564 -0.21875,-0.1875 -0.24428,-0.30415 -0.42713,-0.46605 -0.625,-0.46875 -0.20063,-0.003 -0.24128,-0.007 -0.34375,-0.125 -0.1071,-0.12288 -0.15155,-0.28074 -0.125,-0.40625 0.0158,-0.0752 0.0288,-0.0643 0.0937,-0.0625 0.2366,0.006 0.49121,0.158 0.875,0.5625 l 0.1875,0.1875 -0.0312,-0.125 c -0.009,-0.0668 -0.0346,-0.24383 -0.0625,-0.40625 -0.0302,-0.16203 -0.0387,-0.34561 -0.0312,-0.40625 0.0193,-0.15478 0.1025,-0.29421 0.1875,-0.3125 z m -11.28125,0.6875 c 0.006,0.004 0.007,0.10501 0,0.21875 -0.0166,0.25937 0.0162,0.48532 0.125,0.59375 0.0862,0.086 0.12862,0.0782 0.21875,0 0.0352,-0.0305 0.0507,-0.03865 0.0625,-0.03125 0.0338,0.0213 0.0766,0.14793 0.0625,0.21875 -0.0417,0.19977 -0.15688,0.2622 -0.3125,0.1875 -0.16932,-0.0813 -0.29941,-0.40991 -0.28125,-0.78125 0.008,-0.16692 0.0962,-0.42432 0.125,-0.40625 z m 9.21875,0.71875 c 0.0586,-0.0125 0.17274,0.0713 0.1875,0.125 0.0119,0.043 0.008,0.0513 -0.0625,0.0625 -0.13652,0.0217 -0.1347,0.006 -0.15625,0.09375 l -0.0312,0.09375 0,-0.09375 c -0.007,-0.10959 0.0221,-0.27253 0.0625,-0.28125 z m 0.78125,0.4375 c 0.0237,-0.0103 0.0322,0.0081 0.0625,0.03125 0.0338,0.0255 0.042,0.0255 0,0.0625 -0.064,0.0565 -0.0916,0.11522 -0.0625,0.15625 0.0376,0.0529 0.0994,0.03675 0.21875,-0.03125 0.063,-0.0358 0.11629,-0.068 0.125,-0.0625 0.0432,0.027 -0.0652,0.19591 -0.25,0.34375 -0.28089,0.22478 -0.39316,0.29485 -0.5,0.28125 -0.0623,-0.008 -0.12244,0.0127 -0.21875,0.0625 -0.16029,0.0828 -0.25874,0.0853 -0.375,0.0625 -0.0489,-0.01 -0.12373,0.01085 -0.1875,0.03125 -0.0901,0.0288 -0.15208,0.032 -0.21875,0 -0.0844,-0.0408 -0.0603,-0.0476 -0.0625,-0.1875 -0.004,-0.27963 0.0776,-0.43732 0.1875,-0.34375 0.0714,0.0607 0.0675,0.0718 -0.0312,0.15625 -0.12382,0.10608 -0.15555,0.19167 -0.0625,0.25 0.0401,0.0251 0.10276,0.04455 0.125,0.03125 0.12012,-0.071 0.26016,-0.18965 0.28125,-0.21875 0.0183,-0.0254 -0.004,-0.0589 -0.0625,-0.15625 -0.0875,-0.14473 -0.0951,-0.15229 0,-0.125 0.0629,0.0181 0.0882,0.0326 0.125,0.21875 0.0423,0.21681 0.0618,0.21902 0.1875,0.15625 0.0658,-0.0329 0.0763,-0.10838 0.0937,-0.34375 0.01,-0.13439 0.0331,-0.16974 0.0937,-0.21875 0.0833,-0.0674 0.16983,-0.0643 0.1875,0 0.006,0.0247 -0.0272,0.02315 -0.0625,0.03125 -0.0722,0.0168 -0.15882,0.15417 -0.125,0.1875 0.0133,0.0133 0.0564,0.008 0.0937,0 0.0642,-0.0137 0.0793,-0.01045 0.0937,0.09375 0.0149,0.10795 0.0168,0.11039 0.0937,0.09375 0.0435,-0.009 0.0928,-0.031 0.125,-0.0625 0.0507,-0.0496 0.0621,-0.0747 0.0312,-0.1875 -0.0279,-0.10119 -0.0355,-0.1541 0,-0.21875 0.0256,-0.0472 0.07,-0.08355 0.0937,-0.09375 z m -6.09375,0.5625 c 0.009,-0.002 0.0313,0.12588 0.0625,0.28125 0.0628,0.30599 0.12948,0.42947 0.28125,0.53125 l 0.0937,0.0625 0.0625,-0.125 c 0.0777,-0.12929 0.0906,-0.14464 0.125,0.03125 0.0182,0.0918 -0.0482,0.33395 -0.0937,0.34375 -0.02,0.004 -0.0449,0.02125 -0.0625,0.03125 -0.0178,0.01 -0.0627,6.6e-4 -0.0937,0 -0.0311,-9e-4 -0.0943,-0.01435 -0.125,-0.03125 -0.0765,-0.042 -0.18102,-0.23757 -0.21875,-0.375 -0.0656,-0.23904 -0.0905,-0.73729 -0.0312,-0.75 z"
         id="path3312"
         inkscape:connector-curvature="0" />
    </g>
  </g>
</svg>
